Radio-Canada-Condensed-Regular.ufo
<glyph name="dollar" format="2">
	<advance width="500"/>
	<unicode hex="0024"/>
	<outline>
		<contour>
			<point x="36" y="81" type="line"/>
			<point x="83" y="31"/>
			<point x="165" y="-10"/>
			<point x="245" y="-10" type="curve" smooth="yes"/>
			<point x="372" y="-10"/>
			<point x="459" y="70"/>
			<point x="459" y="192" type="curve" smooth="yes"/>
			<point x="459" y="274"/>
			<point x="404" y="341"/>
			<point x="270" y="399" type="curve" smooth="yes"/>
			<point x="178" y="439"/>
			<point x="154" y="471"/>
			<point x="154" y="522" type="curve" smooth="yes"/>
			<point x="154" y="572"/>
			<point x="194" y="617"/>
			<point x="263" y="617" type="curve" smooth="yes"/>
			<point x="313" y="617"/>
			<point x="359" y="595"/>
			<point x="396" y="558" type="curve"/>
			<point x="444" y="631" type="line"/>
			<point x="396" y="675"/>
			<point x="334" y="700"/>
			<point x="266" y="700" type="curve" smooth="yes"/>
			<point x="141" y="700"/>
			<point x="62" y="616"/>
			<point x="62" y="515" type="curve" smooth="yes"/>
			<point x="62" y="429"/>
			<point x="106" y="370"/>
			<point x="241" y="313" type="curve" smooth="yes"/>
			<point x="340" y="270"/>
			<point x="368" y="232"/>
			<point x="368" y="182" type="curve" smooth="yes"/>
			<point x="368" y="123"/>
			<point x="324" y="74"/>
			<point x="252" y="74" type="curve" smooth="yes"/>
			<point x="186" y="74"/>
			<point x="135" y="106"/>
			<point x="88" y="153" type="curve"/>
		</contour>
		<contour>
			<point x="222" y="-100" type="line"/>
			<point x="296" y="-100" type="line"/>
			<point x="296" y="357" type="line"/>
			<point x="222" y="380" type="line"/>
		</contour>
		<contour>
			<point x="222" y="349" type="line"/>
			<point x="296" y="326" type="line"/>
			<point x="296" y="790" type="line"/>
			<point x="222" y="790" type="line"/>
		</contour>
	</outline>
</glyph>
<glyph name="percent" format="2">
	<advance width="804"/>
	<unicode hex="0025"/>
	<outline>
		<contour>
			<point x="62" y="518" type="curve" smooth="yes"/>
			<point x="62" y="401"/>
			<point x="127" y="337"/>
			<point x="208" y="337" type="curve" smooth="yes"/>
			<point x="288" y="337"/>
			<point x="354" y="401"/>
			<point x="354" y="518" type="curve" smooth="yes"/>
			<point x="354" y="635"/>
			<point x="288" y="700"/>
			<point x="208" y="700" type="curve" smooth="yes"/>
			<point x="127" y="700"/>
			<point x="62" y="635"/>
		</contour>
		<contour>
			<point x="141" y="518" type="curve" smooth="yes"/>
			<point x="141" y="587"/>
			<point x="171" y="621"/>
			<point x="208" y="621" type="curve" smooth="yes"/>
			<point x="245" y="621"/>
			<point x="275" y="587"/>
			<point x="275" y="518" type="curve" smooth="yes"/>
			<point x="275" y="450"/>
			<point x="245" y="417"/>
			<point x="208" y="417" type="curve" smooth="yes"/>
			<point x="171" y="417"/>
			<point x="141" y="450"/>
		</contour>
		<contour>
			<point x="165" y="0" type="line"/>
			<point x="259" y="0" type="line"/>
			<point x="638" y="690" type="line"/>
			<point x="545" y="690" type="line"/>
		</contour>
		<contour>
			<point x="450" y="171" type="curve" smooth="yes"/>
			<point x="450" y="54"/>
			<point x="515" y="-10"/>
			<point x="596" y="-10" type="curve" smooth="yes"/>
			<point x="676" y="-10"/>
			<point x="742" y="54"/>
			<point x="742" y="171" type="curve" smooth="yes"/>
			<point x="742" y="288"/>
			<point x="676" y="353"/>
			<point x="596" y="353" type="curve" smooth="yes"/>
			<point x="515" y="353"/>
			<point x="450" y="288"/>
		</contour>
		<contour>
			<point x="529" y="170" type="curve" smooth="yes"/>
			<point x="529" y="239"/>
			<point x="559" y="273"/>
			<point x="596" y="273" type="curve" smooth="yes"/>
			<point x="633" y="273"/>
			<point x="663" y="239"/>
			<point x="663" y="170" type="curve" smooth="yes"/>
			<point x="663" y="102"/>
			<point x="633" y="69"/>
			<point x="596" y="69" type="curve" smooth="yes"/>
			<point x="559" y="69"/>
			<point x="529" y="102"/>
		</contour>
	</outline>
</glyph>
<glyph name="quotesingle" format="2">
	<advance width="203"/>
	<unicode hex="0027"/>
	<outline>
		<contour>
			<point x="54" y="720" type="line"/>
			<point x="70" y="477" type="line"/>
			<point x="133" y="477" type="line"/>
			<point x="149" y="720" type="line"/>
		</contour>
	</outline>
</glyph>
<glyph name="parenright" format="2">
	<advance width="274"/>
	<unicode hex="0029"/>
	<outline>
		<contour>
			<point x="-31" y="-198" type="curve"/>
			<point x="9" y="-237" type="line"/>
			<point x="131" y="-122"/>
			<point x="211" y="52"/>
			<point x="211" y="267" type="curve" smooth="yes"/>
			<point x="211" y="482"/>
			<point x="129" y="658"/>
			<point x="7" y="772" type="curve"/>
			<point x="-30" y="733" type="line"/>
			<point x="66" y="625"/>
			<point x="129" y="448"/>
			<point x="129" y="267" type="curve" smooth="yes"/>
			<point x="129" y="87"/>
			<point x="66" y="-90"/>
		</contour>
	</outline>
</glyph>
<glyph name="hyphen" format="2">
	<advance width="315"/>
	<unicode hex="002D"/>
	<outline>
		<contour>
			<point x="50" y="236" type="line"/>
			<point x="266" y="236" type="line"/>
			<point x="266" y="313" type="line"/>
			<point x="50" y="313" type="line"/>
		</contour>
	</outline>
</glyph>
<glyph name="seven" format="2">
	<advance width="500"/>
	<unicode hex="0037"/>
	<outline>
		<contour>
			<point x="54" y="602" type="line"/>
			<point x="385" y="602" type="line"/>
			<point x="424" y="626" type="line"/>
			<point x="424" y="690" type="line"/>
			<point x="54" y="690" type="line"/>
		</contour>
		<contour>
			<point x="138" y="0" type="line"/>
			<point x="234" y="0" type="line"/>
			<point x="424" y="626" type="line"/>
			<point x="353" y="690" type="line"/>
		</contour>
	</outline>
</glyph>
<glyph name="F" format="2">
	<advance width="462"/>
	<unicode hex="0046"/>
	<outline>
		<contour>
			<point x="77" y="0" type="line"/>
			<point x="167" y="0" type="line"/>
			<point x="167" y="690" type="line"/>
			<point x="77" y="690" type="line"/>
		</contour>
		<contour>
			<point x="122" y="286" type="line"/>
			<point x="399" y="286" type="line"/>
			<point x="399" y="369" type="line"/>
			<point x="122" y="369" type="line"/>
		</contour>
		<contour>
			<point x="122" y="607" type="line"/>
			<point x="430" y="607" type="line"/>
			<point x="430" y="690" type="line"/>
			<point x="122" y="690" type="line"/>
		</contour>
	</outline>
</glyph>
<glyph name="G" format="2">
	<advance width="561"/>
	<unicode hex="0047"/>
	<anchor x="293" y="690" name="top"/>
	<anchor x="302" y="0" name="bottom"/>
	<outline>
		<contour>
			<point x="45" y="345" type="curve"/>
			<point x="45" y="106"/>
			<point x="161" y="-10"/>
			<point x="304" y="-10" type="curve" smooth="yes"/>
			<point x="388" y="-10"/>
			<point x="452" y="24"/>
			<point x="502" y="72" type="curve"/>
			<point x="422" y="115" type="line"/>
			<point x="388" y="86"/>
			<point x="351" y="73"/>
			<point x="312" y="73" type="curve" smooth="yes"/>
			<point x="212" y="73"/>
			<point x="138" y="160"/>
			<point x="138" y="345" type="curve"/>
			<point x="138" y="530"/>
			<point x="211" y="612"/>
			<point x="308" y="612" type="curve" smooth="yes"/>
			<point x="355" y="612"/>
			<point x="396" y="592"/>
			<point x="433" y="555" type="curve"/>
			<point x="485" y="623" type="line"/>
			<point x="432" y="675"/>
			<point x="374" y="700"/>
			<point x="307" y="700" type="curve" smooth="yes"/>
			<point x="165" y="700"/>
			<point x="45" y="584"/>
		</contour>
		<contour>
			<point x="297" y="257" type="line"/>
			<point x="458" y="257" type="line"/>
			<point x="458" y="341" type="line"/>
			<point x="297" y="341" type="line"/>
		</contour>
		<contour>
			<point x="413" y="60" type="line"/>
			<point x="502" y="72" type="line"/>
			<point x="502" y="341" type="line"/>
			<point x="413" y="341" type="line"/>
		</contour>
	</outline>
</glyph>
<glyph name="N" format="2">
	<advance width="600"/>
	<unicode hex="004E"/>
	<anchor x="313" y="690" name="top"/>
	<anchor x="296" y="0" name="bottom"/>
	<outline>
		<contour>
			<point x="77" y="0" type="line"/>
			<point x="163" y="0" type="line"/>
			<point x="163" y="690" type="line"/>
			<point x="77" y="690" type="line"/>
		</contour>
		<contour>
			<point x="102" y="690" type="line"/>
			<point x="413" y="0" type="line"/>
			<point x="500" y="0" type="line"/>
			<point x="189" y="690" type="line"/>
		</contour>
		<contour>
			<point x="437" y="0" type="line"/>
			<point x="523" y="0" type="line"/>
			<point x="523" y="690" type="line"/>
			<point x="437" y="690" type="line"/>
		</contour>
	</outline>
</glyph>
<glyph name="P" format="2">
	<advance width="510"/>
	<unicode hex="0050"/>
	<outline>
		<contour>
			<point x="77" y="0" type="line"/>
			<point x="167" y="0" type="line"/>
			<point x="167" y="690" type="line"/>
			<point x="77" y="690" type="line"/>
		</contour>
		<contour>
			<point x="122" y="232" type="line"/>
			<point x="245" y="232" type="line" smooth="yes"/>
			<point x="376.80645" y="232"/>
			<point x="472" y="305"/>
			<point x="472" y="461" type="curve" smooth="yes"/>
			<point x="472" y="623"/>
			<point x="381" y="690"/>
			<point x="255" y="690" type="curve" smooth="yes"/>
			<point x="122" y="690" type="line"/>
			<point x="122" y="607" type="line"/>
			<point x="248" y="607" type="line" smooth="yes"/>
			<point x="335" y="607"/>
			<point x="380" y="565"/>
			<point x="380" y="461" type="curve" smooth="yes"/>
			<point x="380" y="357"/>
			<point x="334" y="315"/>
			<point x="248" y="315" type="curve" smooth="yes"/>
			<point x="122" y="315" type="line"/>
		</contour>
	</outline>
</glyph>
<glyph name="T" format="2">
	<advance width="463"/>
	<unicode hex="0054"/>
	<anchor x="232" y="690" name="top"/>
	<anchor x="232" y="0" name="bottom"/>
	<outline>
		<contour>
			<point x="23" y="607" type="line"/>
			<point x="440" y="607" type="line"/>
			<point x="440" y="690" type="line"/>
			<point x="23" y="690" type="line"/>
		</contour>
		<contour>
			<point x="187" y="0" type="line"/>
			<point x="277" y="0" type="line"/>
			<point x="277" y="690" type="line"/>
			<point x="187" y="690" type="line"/>
		</contour>
	</outline>
</glyph>
<glyph name="underscore" format="2">
	<advance width="366"/>
	<unicode hex="005F"/>
	<outline>
		<contour>
			<point x="0" y="-77" type="line"/>
			<point x="366" y="-77" type="line"/>
			<point x="366" y="0" type="line"/>
			<point x="0" y="0" type="line"/>
		</contour>
	</outline>
</glyph>
<glyph name="d" format="2">
	<advance width="498"/>
	<unicode hex="0064"/>
	<anchor x="498" y="720" name="caron.alt"/>
	<outline>
		<contour>
			<point x="42" y="252" type="curve" smooth="yes"/>
			<point x="42" y="89"/>
			<point x="114" y="-11"/>
			<point x="216" y="-10" type="curve" smooth="yes"/>
			<point x="269" y="-9"/>
			<point x="317" y="19"/>
			<point x="350" y="60" type="curve"/>
			<point x="350" y="130" type="line"/>
			<point x="316" y="94"/>
			<point x="277" y="71"/>
			<point x="236" y="71" type="curve" smooth="yes"/>
			<point x="176.1619" y="71"/>
			<point x="133" y="137"/>
			<point x="133" y="257" type="curve" smooth="yes"/>
			<point x="133" y="369"/>
			<point x="176.23478" y="448"/>
			<point x="246" y="448" type="curve" smooth="yes"/>
			<point x="293" y="448"/>
			<point x="337" y="409"/>
			<point x="337" y="317" type="curve"/>
			<point x="372" y="337" type="line"/>
			<point x="372" y="474"/>
			<point x="302" y="524"/>
			<point x="229" y="524" type="curve" smooth="yes"/>
			<point x="119" y="524"/>
			<point x="42" y="422"/>
		</contour>
		<contour>
			<point x="354" y="0" type="line"/>
			<point x="437" y="0" type="line"/>
			<point x="430" y="44" type="line" smooth="yes"/>
			<point x="426" y="73"/>
			<point x="425" y="94"/>
			<point x="425" y="122" type="curve" smooth="yes"/>
			<point x="425" y="735" type="line"/>
			<point x="337" y="715" type="line"/>
			<point x="337" y="100" type="line"/>
		</contour>
	</outline>
</glyph>
<glyph name="f" format="2">
	<advance width="310"/>
	<unicode hex="0066"/>
	<outline>
		<contour>
			<point x="16" y="437" type="line"/>
			<point x="305" y="437" type="line"/>
			<point x="305" y="514" type="line"/>
			<point x="16" y="514" type="line"/>
		</contour>
		<contour>
			<point x="92" y="0" type="line"/>
			<point x="180" y="0" type="line"/>
			<point x="180" y="556" type="line" smooth="yes"/>
			<point x="180" y="620"/>
			<point x="202" y="654"/>
			<point x="248" y="654" type="curve" smooth="yes"/>
			<point x="268.32258" y="654"/>
			<point x="289" y="649"/>
			<point x="311" y="640" type="curve"/>
			<point x="326" y="712" type="line"/>
			<point x="299.70787" y="723"/>
			<point x="268.35955" y="730"/>
			<point x="236" y="730" type="curve" smooth="yes"/>
			<point x="154" y="730"/>
			<point x="92" y="668"/>
			<point x="92" y="560" type="curve" smooth="yes"/>
		</contour>
	</outline>
</glyph>
<glyph name="x" format="2">
	<advance width="442"/>
	<unicode hex="0078"/>
	<outline>
		<contour>
			<point x="18" y="0" type="line"/>
			<point x="115" y="0" type="line"/>
			<point x="228" y="212" type="line"/>
			<point x="258" y="245" type="line"/>
			<point x="414" y="515" type="line"/>
			<point x="319" y="515" type="line"/>
			<point x="212" y="314" type="line"/>
			<point x="181" y="283" type="line"/>
		</contour>
		<contour>
			<point x="24" y="515" type="line"/>
			<point x="192" y="234" type="line"/>
			<point x="195" y="229" type="line"/>
			<point x="326" y="0" type="line"/>
			<point x="424" y="0" type="line"/>
			<point x="249" y="295" type="line"/>
			<point x="246" y="300" type="line"/>
			<point x="122" y="515" type="line"/>
		</contour>
	</outline>
</glyph>
<glyph name="z" format="2">
	<advance width="424"/>
	<unicode hex="007A"/>
	<anchor x="212" y="514" name="top"/>
	<outline>
		<contour>
			<point x="39" y="58" type="line"/>
			<point x="97" y="0" type="line" smooth="yes"/>
			<point x="377" y="457" type="line"/>
			<point x="319" y="515" type="line"/>
		</contour>
		<contour>
			<point x="39" y="0" type="line"/>
			<point x="385" y="0" type="line"/>
			<point x="385" y="77" type="line"/>
			<point x="81" y="77" type="line"/>
			<point x="39" y="58" type="line"/>
		</contour>
		<contour>
			<point x="48" y="438" type="line"/>
			<point x="334" y="438" type="line"/>
			<point x="377" y="457" type="line"/>
			<point x="377" y="515" type="line"/>
			<point x="48" y="515" type="line"/>
		</contour>
	</outline>
</glyph>
<glyph name="exclamdown" format="2">
	<advance width="278"/>
	<unicode hex="00A1"/>
	<outline>
		<contour>
			<point x="92" y="-185" type="line"/>
			<point x="186" y="-185" type="line"/>
			<point x="186" y="0" type="line"/>
			<point x="172" y="308" type="line"/>
			<point x="106" y="308" type="line"/>
			<point x="92" y="0" type="line"/>
		</contour>
		<contour>
			<point x="80" y="465" type="curve" smooth="yes"/>
			<point x="80" y="432"/>
			<point x="106" y="406"/>
			<point x="139" y="406" type="curve" smooth="yes"/>
			<point x="171" y="406"/>
			<point x="198" y="432"/>
			<point x="198" y="465" type="curve" smooth="yes"/>
			<point x="198" y="497"/>
			<point x="171" y="524"/>
			<point x="139" y="524" type="curve" smooth="yes"/>
			<point x="106" y="524"/>
			<point x="80" y="497"/>
		</contour>
	</outline>
</glyph>
<glyph name="cent" format="2">
	<advance width="500"/>
	<unicode hex="00A2"/>
	<outline>
		<contour>
			<point x="237" y="-100" type="line"/>
			<point x="313" y="-100" type="line"/>
			<point x="313" y="295" type="line"/>
			<point x="237" y="295" type="line"/>
		</contour>
		<contour>
			<point x="237" y="265" type="line"/>
			<point x="313" y="265" type="line"/>
			<point x="313" y="695" type="line"/>
			<point x="237" y="695" type="line"/>
		</contour>
		<contour>
			<point x="77" y="294" type="curve" smooth="yes"/>
			<point x="77" y="122"/>
			<point x="171" y="30"/>
			<point x="291" y="30" type="curve" smooth="yes"/>
			<point x="356" y="30"/>
			<point x="408" y="55"/>
			<point x="441" y="89" type="curve"/>
			<point x="394" y="147" type="line"/>
			<point x="372" y="128"/>
			<point x="339" y="111"/>
			<point x="300" y="111" type="curve" smooth="yes"/>
			<point x="228" y="111"/>
			<point x="167" y="175"/>
			<point x="167" y="294" type="curve" smooth="yes"/>
			<point x="167" y="419"/>
			<point x="228" y="484"/>
			<point x="298" y="484" type="curve" smooth="yes"/>
			<point x="332" y="484"/>
			<point x="358" y="467"/>
			<point x="379" y="447" type="curve"/>
			<point x="428" y="506" type="line"/>
			<point x="396" y="544"/>
			<point x="348" y="564"/>
			<point x="295" y="564" type="curve" smooth="yes"/>
			<point x="172" y="564"/>
			<point x="77" y="462"/>
		</contour>
	</outline>
</glyph>
<glyph name="currency" format="2">
	<advance width="500"/>
	<unicode hex="00A4"/>
	<outline>
		<contour>
			<point x="49" y="347" type="curve" smooth="yes"/>
			<point x="49" y="218"/>
			<point x="140.18537" y="138"/>
			<point x="250" y="138" type="curve" smooth="yes"/>
			<point x="361.78641" y="138"/>
			<point x="452" y="218"/>
			<point x="452" y="347" type="curve" smooth="yes"/>
			<point x="452" y="473"/>
			<point x="361.78641" y="554"/>
			<point x="250" y="554" type="curve" smooth="yes"/>
			<point x="140.18537" y="554"/>
			<point x="49" y="473"/>
		</contour>
		<contour>
			<point x="133" y="345" type="curve" smooth="yes"/>
			<point x="133" y="430"/>
			<point x="187.93913" y="472"/>
			<point x="250" y="472" type="curve" smooth="yes"/>
			<point x="313.05983" y="472"/>
			<point x="369" y="430"/>
			<point x="369" y="345" type="curve" smooth="yes"/>
			<point x="369" y="263"/>
			<point x="313.05983" y="220"/>
			<point x="250" y="220" type="curve" smooth="yes"/>
			<point x="187.93913" y="220"/>
			<point x="133" y="263"/>
		</contour>
		<contour>
			<point x="26" y="141" type="line"/>
			<point x="81" y="89" type="line"/>
			<point x="149" y="166" type="line"/>
			<point x="94" y="219" type="line"/>
		</contour>
		<contour>
			<point x="351" y="166" type="line"/>
			<point x="419" y="89" type="line"/>
			<point x="474" y="141" type="line"/>
			<point x="406" y="219" type="line"/>
		</contour>
		<contour>
			<point x="26" y="549" type="line"/>
			<point x="94" y="471" type="line"/>
			<point x="149" y="524" type="line"/>
			<point x="81" y="601" type="line"/>
		</contour>
		<contour>
			<point x="351" y="524" type="line"/>
			<point x="406" y="471" type="line"/>
			<point x="474" y="549" type="line"/>
			<point x="419" y="601" type="line"/>
		</contour>
	</outline>
</glyph>
<glyph name="dieresis" format="2">
	<advance width="500"/>
	<unicode hex="00A8"/>
	<anchor x="250" y="514" name="_top"/>
	<outline>
		<contour>
			<point x="112" y="673" type="curve" smooth="yes"/>
			<point x="112" y="643"/>
			<point x="136" y="619"/>
			<point x="166" y="619" type="curve" smooth="yes"/>
			<point x="196" y="619"/>
			<point x="220" y="643"/>
			<point x="220" y="673" type="curve" smooth="yes"/>
			<point x="220" y="703"/>
			<point x="196" y="727"/>
			<point x="166" y="727" type="curve" smooth="yes"/>
			<point x="136" y="727"/>
			<point x="112" y="703"/>
		</contour>
		<contour>
			<point x="280" y="673" type="curve" smooth="yes"/>
			<point x="280" y="643"/>
			<point x="304" y="619"/>
			<point x="334" y="619" type="curve" smooth="yes"/>
			<point x="364" y="619"/>
			<point x="388" y="643"/>
			<point x="388" y="673" type="curve" smooth="yes"/>
			<point x="388" y="703"/>
			<point x="364" y="727"/>
			<point x="334" y="727" type="curve" smooth="yes"/>
			<point x="304" y="727"/>
			<point x="280" y="703"/>
		</contour>
	</outline>
</glyph>
<glyph name="degree" format="2">
	<advance width="327"/>
	<unicode hex="00B0"/>
	<outline>
		<contour>
			<point x="33" y="567" type="curve" smooth="yes"/>
			<point x="33" y="488"/>
			<point x="92.09774" y="433"/>
			<point x="164" y="433" type="curve" smooth="yes"/>
			<point x="236.89552" y="433"/>
			<point x="296" y="488"/>
			<point x="296" y="567" type="curve" smooth="yes"/>
			<point x="296" y="645"/>
			<point x="236.89552" y="700"/>
			<point x="164" y="700" type="curve" smooth="yes"/>
			<point x="92.09774" y="700"/>
			<point x="33" y="645"/>
		</contour>
		<contour>
			<point x="108" y="566" type="curve" smooth="yes"/>
			<point x="108" y="603"/>
			<point x="134" y="627"/>
			<point x="164" y="627" type="curve" smooth="yes"/>
			<point x="195" y="627"/>
			<point x="221" y="603.22034"/>
			<point x="221" y="566" type="curve" smooth="yes"/>
			<point x="221" y="529.7931"/>
			<point x="195" y="506"/>
			<point x="164" y="506" type="curve" smooth="yes"/>
			<point x="134" y="506"/>
			<point x="108" y="530"/>
		</contour>
	</outline>
</glyph>
<glyph name="threesuperior" format="2">
	<advance width="370"/>
	<unicode hex="00B3"/>
	<outline>
		<contour>
			<point x="46" y="337" type="line"/>
			<point x="82" y="297"/>
			<point x="122" y="280"/>
			<point x="172" y="280" type="curve" smooth="yes"/>
			<point x="246.10606" y="280"/>
			<point x="306" y="327"/>
			<point x="306" y="411" type="curve" smooth="yes"/>
			<point x="306" y="486.35043"/>
			<point x="256" y="527"/>
			<point x="178" y="527" type="curve"/>
			<point x="147" y="527" type="line"/>
			<point x="120" y="513" type="line"/>
			<point x="120" y="467" type="line"/>
			<point x="156" y="467" type="line" smooth="yes"/>
			<point x="209" y="467"/>
			<point x="232" y="445.74576"/>
			<point x="232" y="410" type="curve" smooth="yes"/>
			<point x="232" y="371"/>
			<point x="204.4375" y="349"/>
			<point x="169" y="349" type="curve" smooth="yes"/>
			<point x="137" y="349"/>
			<point x="110" y="364"/>
			<point x="87" y="389" type="curve"/>
		</contour>
		<contour>
			<point x="63" y="622" type="line"/>
			<point x="255" y="622" type="line"/>
			<point x="286" y="637" type="line"/>
			<point x="286" y="690" type="line"/>
			<point x="63" y="690" type="line"/>
		</contour>
		<contour>
			<point x="120" y="513" type="line"/>
			<point x="198" y="514" type="line"/>
			<point x="286" y="637" type="line"/>
			<point x="250" y="690" type="line"/>
		</contour>
	</outline>
</glyph>
<glyph name="acute" format="2">
	<advance width="500"/>
	<unicode hex="00B4"/>
	<anchor x="250" y="514" name="_top"/>
	<outline>
		<contour>
			<point x="208" y="589" type="line"/>
			<point x="281" y="589" type="line"/>
			<point x="380" y="739" type="line"/>
			<point x="278" y="739" type="line"/>
		</contour>
	</outline>
</glyph>
<glyph name="onequarter" format="2">
	<advance width="720"/>
	<unicode hex="00BC"/>
	<outline>
		<component base="onesuperior" xOffset="-42"/>
		<component base="fraction" xOffset="185"/>
		<contour>
			<point x="415" y="117" type="line"/>
			<point x="463" y="65" type="line"/>
			<point x="623" y="399" type="line"/>
			<point x="557" y="399" type="line"/>
		</contour>
		<contour>
			<point x="415" y="65" type="line"/>
			<point x="710" y="65" type="line"/>
			<point x="710" y="132" type="line"/>
			<point x="445" y="132" type="line"/>
			<point x="415" y="117" type="line"/>
		</contour>
		<contour>
			<point x="581" y="0" type="line"/>
			<point x="650" y="0" type="line"/>
			<point x="650" y="399" type="line"/>
			<point x="581" y="399" type="line"/>
		</contour>
	</outline>
</glyph>
<glyph name="threequarters" format="2">
	<advance width="680"/>
	<unicode hex="00BE"/>
	<outline>
		<component base="threesuperior" xOffset="-36"/>
		<component base="fraction" xOffset="142"/>
		<contour>
			<point x="375" y="117" type="line"/>
			<point x="423" y="65" type="line"/>
			<point x="583" y="399" type="line"/>
			<point x="517" y="399" type="line"/>
		</contour>
		<contour>
			<point x="375" y="65" type="line"/>
			<point x="670" y="65" type="line"/>
			<point x="670" y="132" type="line"/>
			<point x="405" y="132" type="line"/>
			<point x="375" y="117" type="line"/>
		</contour>
		<contour>
			<point x="541" y="0" type="line"/>
			<point x="610" y="0" type="line"/>
			<point x="610" y="399" type="line"/>
			<point x="541" y="399" type="line"/>
		</contour>
	</outline>
</glyph>
<glyph name="eth" format="2">
	<advance width="486"/>
	<unicode hex="00F0"/>
	<outline>
		<contour>
			<point x="45" y="235" type="curve" smooth="yes"/>
			<point x="45" y="75"/>
			<point x="128" y="-10"/>
			<point x="232" y="-10" type="curve" smooth="yes"/>
			<point x="337.5122" y="-10"/>
			<point x="436.99512" y="93.86813"/>
			<point x="438" y="268" type="curve" smooth="yes"/>
			<point x="439.00498" y="465.81182"/>
			<point x="335.49254" y="637.81818"/>
			<point x="236" y="720" type="curve"/>
			<point x="129" y="720" type="line"/>
			<point x="271" y="602"/>
			<point x="356" y="452"/>
			<point x="356" y="265" type="curve" smooth="yes"/>
			<point x="356" y="143"/>
			<point x="296" y="68"/>
			<point x="234" y="68" type="curve" smooth="yes"/>
			<point x="178" y="68"/>
			<point x="133" y="126"/>
			<point x="133" y="235" type="curve" smooth="yes"/>
			<point x="133" y="344"/>
			<point x="181" y="402"/>
			<point x="241" y="402" type="curve" smooth="yes"/>
			<point x="290" y="402"/>
			<point x="334" y="372"/>
			<point x="357" y="327" type="curve"/>
			<point x="361" y="395" type="line"/>
			<point x="335.94203" y="437.5"/>
			<point x="297.3913" y="480"/>
			<point x="228" y="480" type="curve" smooth="yes"/>
			<point x="137.52809" y="480"/>
			<point x="45" y="395"/>
		</contour>
		<contour>
			<point x="162" y="539" type="line"/>
			<point x="382" y="680" type="line"/>
			<point x="350" y="731" type="line"/>
			<point x="130" y="590" type="line"/>
		</contour>
	</outline>
</glyph>
<glyph name="lslash" format="2">
	<advance width="263"/>
	<unicode hex="0142"/>
	<outline>
		<contour>
			<point x="87" y="0" type="line"/>
			<point x="175" y="0" type="line"/>
			<point x="175" y="735" type="line"/>
			<point x="87" y="715" type="line"/>
		</contour>
		<contour>
			<point x="27" y="224" type="line"/>
			<point x="240" y="363" type="line"/>
			<point x="240" y="438" type="line"/>
			<point x="27" y="299" type="line"/>
		</contour>
	</outline>
</glyph>
<glyph name="eng" format="2">
	<advance width="515"/>
	<unicode hex="014B"/>
	<outline>
		<contour>
			<point x="61" y="514" type="line"/>
			<point x="67" y="471" type="line" smooth="yes"/>
			<point x="71" y="442"/>
			<point x="73" y="420"/>
			<point x="73" y="392" type="curve" smooth="yes"/>
			<point x="73" y="0" type="line"/>
			<point x="161" y="0" type="line"/>
			<point x="161" y="414" type="line"/>
			<point x="144" y="514" type="line"/>
		</contour>
		<contour>
			<point x="240" y="-181" type="line"/>
			<point x="258" y="-189"/>
			<point x="283" y="-195"/>
			<point x="307" y="-195" type="curve" smooth="yes"/>
			<point x="387" y="-195"/>
			<point x="446" y="-134"/>
			<point x="446" y="-37" type="curve" smooth="yes"/>
			<point x="446" y="315" type="line" smooth="yes"/>
			<point x="446" y="456"/>
			<point x="378" y="524"/>
			<point x="294" y="524" type="curve"/>
			<point x="236" y="524"/>
			<point x="185" y="485"/>
			<point x="149" y="429" type="curve"/>
			<point x="149" y="359" type="line"/>
			<point x="183" y="410"/>
			<point x="226" y="441"/>
			<point x="268" y="441" type="curve"/>
			<point x="320" y="441"/>
			<point x="358" y="399"/>
			<point x="358" y="304" type="curve"/>
			<point x="358" y="-33" type="line" smooth="yes"/>
			<point x="358" y="-91"/>
			<point x="336" y="-118"/>
			<point x="298" y="-118" type="curve" smooth="yes"/>
			<point x="281" y="-118"/>
			<point x="268" y="-114"/>
			<point x="253" y="-109" type="curve"/>
		</contour>
	</outline>
</glyph>
<glyph name="Tbar" format="2">
	<advance width="471"/>
	<unicode hex="0166"/>
	<outline>
		<contour>
			<point x="27" y="607" type="line"/>
			<point x="444" y="607" type="line"/>
			<point x="444" y="690" type="line"/>
			<point x="27" y="690" type="line"/>
		</contour>
		<contour>
			<point x="191" y="0" type="line"/>
			<point x="281" y="0" type="line"/>
			<point x="281" y="690" type="line"/>
			<point x="191" y="690" type="line"/>
		</contour>
		<contour>
			<point x="73" y="292" type="line"/>
			<point x="399" y="292" type="line"/>
			<point x="399" y="369" type="line"/>
			<point x="73" y="369" type="line"/>
		</contour>
	</outline>
</glyph>
<glyph name="florin" format="2">
	<advance width="500"/>
	<unicode hex="0192"/>
	<outline>
		<contour>
			<point x="69" y="-183" type="line"/>
			<point x="88" y="-190"/>
			<point x="111" y="-195"/>
			<point x="138" y="-195" type="curve" smooth="yes"/>
			<point x="216" y="-195"/>
			<point x="275" y="-149"/>
			<point x="275" y="-43" type="curve" smooth="yes"/>
			<point x="275" y="556" type="line" smooth="yes"/>
			<point x="275" y="620"/>
			<point x="297" y="654"/>
			<point x="343" y="654" type="curve" smooth="yes"/>
			<point x="363" y="654"/>
			<point x="384" y="649"/>
			<point x="406" y="640" type="curve"/>
			<point x="421" y="712" type="line"/>
			<point x="395" y="723"/>
			<point x="363" y="730"/>
			<point x="331" y="730" type="curve" smooth="yes"/>
			<point x="249" y="730"/>
			<point x="187" y="668"/>
			<point x="187" y="560" type="curve" smooth="yes"/>
			<point x="187" y="-41" type="line" smooth="yes"/>
			<point x="187" y="-98"/>
			<point x="163" y="-116"/>
			<point x="129" y="-116" type="curve" smooth="yes"/>
			<point x="113" y="-116"/>
			<point x="97" y="-113"/>
			<point x="83" y="-109" type="curve"/>
		</contour>
		<contour>
			<point x="111" y="437" type="line"/>
			<point x="400" y="437" type="line"/>
			<point x="400" y="514" type="line"/>
			<point x="111" y="514" type="line"/>
		</contour>
	</outline>
</glyph>
<glyph name="circumflexcomb" format="2">
	<advance width="0"/>
	<unicode hex="0302"/>
	<anchor x="0" y="515" name="_top"/>
	<anchor x="0" y="710" name="top"/>
	<outline>
		<contour>
			<point x="-124" y="589" type="line"/>
			<point x="-51" y="589" type="line"/>
			<point x="40" y="739" type="line"/>
			<point x="-46" y="739" type="line"/>
		</contour>
		<contour>
			<point x="-42" y="739" type="line"/>
			<point x="49" y="589" type="line"/>
			<point x="122" y="589" type="line"/>
			<point x="44" y="739" type="line"/>
		</contour>
	</outline>
</glyph>
<glyph name="hookabovecomb" format="2">
	<advance width="0"/>
	<unicode hex="0309"/>
	<anchor x="0" y="515" name="_top"/>
	<outline>
		<contour>
			<point x="-26" y="557" type="line"/>
			<point x="26" y="557" type="line"/>
			<point x="26" y="589" type="line"/>
			<point x="51" y="595"/>
			<point x="78" y="617"/>
			<point x="78" y="652" type="curve" smooth="yes"/>
			<point x="78" y="691"/>
			<point x="48" y="720"/>
			<point x="-25" y="720" type="curve"/>
			<point x="-25" y="673" type="line"/>
			<point x="5" y="673"/>
			<point x="24" y="667"/>
			<point x="24" y="650" type="curve" smooth="yes"/>
			<point x="24" y="634"/>
			<point x="5" y="626"/>
			<point x="-26" y="626" type="curve"/>
		</contour>
	</outline>
</glyph>
<glyph name="dblgravecomb" format="2">
	<advance width="0"/>
	<unicode hex="030F"/>
	<anchor x="0" y="515" name="_top"/>
	<outline>
		<contour>
			<point x="-183" y="739" type="line"/>
			<point x="-92" y="589" type="line"/>
			<point x="-19" y="589" type="line"/>
			<point x="-83" y="739" type="line"/>
		</contour>
		<contour>
			<point x="-53" y="739" type="line"/>
			<point x="38" y="589" type="line"/>
			<point x="111" y="589" type="line"/>
			<point x="47" y="739" type="line"/>
		</contour>
	</outline>
</glyph>
<glyph name="horncomb" format="2">
	<advance width="0"/>
	<unicode hex="031B"/>
	<anchor x="0" y="690" name="_horn"/>
	<outline>
		<contour>
			<point x="0" y="615" type="line"/>
			<point x="140" y="615"/>
			<point x="202" y="690"/>
			<point x="202" y="813" type="curve"/>
			<point x="116" y="813" type="line"/>
			<point x="116" y="744"/>
			<point x="82" y="690"/>
			<point x="0" y="690" type="curve"/>
		</contour>
	</outline>
</glyph>
<glyph name="commaaccentcomb" format="2">
	<advance width="0"/>
	<unicode hex="0326"/>
	<anchor x="0" y="0" name="_bottom"/>
	<outline>
		<contour>
			<point x="-43" y="-293" type="line"/>
			<point x="6" y="-293" type="line"/>
			<point x="39" y="-200" type="line" smooth="yes"/>
			<point x="48" y="-176"/>
			<point x="54" y="-156"/>
			<point x="54" y="-134" type="curve" smooth="yes"/>
			<point x="54" y="-104"/>
			<point x="31" y="-80"/>
			<point x="0" y="-80" type="curve" smooth="yes"/>
			<point x="-29" y="-80"/>
			<point x="-54" y="-102"/>
			<point x="-54" y="-134" type="curve" smooth="yes"/>
			<point x="-54" y="-157"/>
			<point x="-39" y="-177"/>
			<point x="-18" y="-185" type="curve"/>
		</contour>
	</outline>
</glyph>
<glyph name="ogonekcomb" format="2">
	<advance width="0"/>
	<unicode hex="0328"/>
	<anchor x="0" y="0" name="_ogonek"/>
	<outline>
		<contour>
			<point x="-105" y="-108" type="curve" smooth="yes"/>
			<point x="-105" y="-161"/>
			<point x="-67" y="-195"/>
			<point x="-17" y="-195" type="curve" smooth="yes"/>
			<point x="11" y="-195"/>
			<point x="35" y="-185"/>
			<point x="52" y="-172" type="curve"/>
			<point x="31" y="-121" type="line"/>
			<point x="22" y="-126"/>
			<point x="11" y="-131"/>
			<point x="-3" y="-131" type="curve" smooth="yes"/>
			<point x="-21" y="-131"/>
			<point x="-36" y="-118"/>
			<point x="-36" y="-98" type="curve" smooth="yes"/>
			<point x="-36" y="-62"/>
			<point x="-9" y="-29"/>
			<point x="35" y="0" type="curve"/>
			<point x="-40" y="0" type="line"/>
			<point x="-75" y="-21"/>
			<point x="-105" y="-63"/>
		</contour>
	</outline>
</glyph>
<glyph name="pi" format="2">
	<advance width="511"/>
	<unicode hex="03C0"/>
	<outline>
		<contour>
			<point x="34" y="436" type="line"/>
			<point x="473" y="436" type="line"/>
			<point x="473" y="514" type="line"/>
			<point x="34" y="514" type="line"/>
		</contour>
		<contour>
			<point x="94" y="0" type="line"/>
			<point x="182" y="0" type="line"/>
			<point x="182" y="514" type="line"/>
			<point x="94" y="514" type="line"/>
		</contour>
		<contour>
			<point x="324" y="96" type="line" smooth="yes"/>
			<point x="324" y="14"/>
			<point x="367.96552" y="-10"/>
			<point x="409" y="-10" type="curve" smooth="yes"/>
			<point x="425.82051" y="-10"/>
			<point x="440.2381" y="-6"/>
			<point x="450" y="-2" type="curve"/>
			<point x="450" y="71" type="line"/>
			<point x="446" y="70"/>
			<point x="443" y="69"/>
			<point x="439" y="69" type="curve"/>
			<point x="420" y="69"/>
			<point x="412" y="82"/>
			<point x="412" y="136" type="curve" smooth="yes"/>
			<point x="412" y="514" type="line"/>
			<point x="324" y="514" type="line"/>
		</contour>
	</outline>
</glyph>
<glyph name="colonsign" format="2">
	<advance width="517"/>
	<unicode hex="20A1"/>
	<outline>
		<component base="C"/>
		<contour>
			<point x="123" y="-125" type="line"/>
			<point x="202" y="-125" type="line"/>
			<point x="302" y="810" type="line"/>
			<point x="223" y="810" type="line"/>
		</contour>
		<contour>
			<point x="253" y="-125" type="line"/>
			<point x="332" y="-125" type="line"/>
			<point x="432" y="810" type="line"/>
			<point x="353" y="810" type="line"/>
		</contour>
	</outline>
</glyph>
<glyph name="peseta" format="2">
	<advance width="510"/>
	<unicode hex="20A7"/>
	<outline>
		<component base="P"/>
		<contour>
			<point x="10" y="406" type="line"/>
			<point x="500" y="406" type="line"/>
			<point x="500" y="483" type="line"/>
			<point x="10" y="483" type="line"/>
		</contour>
	</outline>
</glyph>
<glyph name="dong" format="2">
	<advance width="498"/>
	<unicode hex="20AB"/>
	<outline>
		<contour>
			<point x="42" y="312" type="curve" smooth="yes"/>
			<point x="42" y="199"/>
			<point x="114" y="109"/>
			<point x="216" y="110" type="curve" smooth="yes"/>
			<point x="269" y="111"/>
			<point x="317" y="139"/>
			<point x="350" y="180" type="curve"/>
			<point x="350" y="250" type="line"/>
			<point x="316" y="214"/>
			<point x="277" y="191"/>
			<point x="236" y="191" type="curve" smooth="yes"/>
			<point x="176" y="191"/>
			<point x="133" y="247"/>
			<point x="133" y="317" type="curve" smooth="yes"/>
			<point x="133" y="379"/>
			<point x="176.23478" y="448"/>
			<point x="246" y="448" type="curve" smooth="yes"/>
			<point x="293" y="448"/>
			<point x="337" y="409"/>
			<point x="337" y="317" type="curve"/>
			<point x="372" y="337" type="line"/>
			<point x="372" y="474"/>
			<point x="302" y="524"/>
			<point x="229" y="524" type="curve" smooth="yes"/>
			<point x="119" y="524"/>
			<point x="42" y="432"/>
		</contour>
		<contour>
			<point x="354" y="120" type="line"/>
			<point x="437" y="120" type="line"/>
			<point x="430" y="164" type="line" smooth="yes"/>
			<point x="425" y="193"/>
			<point x="425" y="214"/>
			<point x="425" y="242" type="curve" smooth="yes"/>
			<point x="425" y="735" type="line"/>
			<point x="337" y="715" type="line"/>
			<point x="337" y="220" type="line"/>
		</contour>
		<contour>
			<point x="47" y="0" type="line"/>
			<point x="456" y="0" type="line"/>
			<point x="456" y="77" type="line"/>
			<point x="47" y="77" type="line"/>
		</contour>
		<contour>
			<point x="197" y="575" type="line"/>
			<point x="486" y="575" type="line"/>
			<point x="486" y="652" type="line"/>
			<point x="197" y="652" type="line"/>
		</contour>
	</outline>
</glyph>
<glyph name="peso" format="2">
	<advance width="510"/>
	<unicode hex="20B1"/>
	<outline>
		<component base="P"/>
		<contour>
			<point x="10" y="363" type="line"/>
			<point x="500" y="363" type="line"/>
			<point x="500" y="440" type="line"/>
			<point x="10" y="440" type="line"/>
		</contour>
		<contour>
			<point x="10" y="480" type="line"/>
			<point x="500" y="480" type="line"/>
			<point x="500" y="557" type="line"/>
			<point x="10" y="557" type="line"/>
		</contour>
	</outline>
</glyph>
<glyph name="rupeeIndian" format="2">
	<advance width="522"/>
	<unicode hex="20B9"/>
	<outline>
		<contour>
			<point x="122" y="261" type="line"/>
			<point x="240" y="261" type="line"/>
			<point x="371" y="261"/>
			<point x="467" y="334"/>
			<point x="467" y="476" type="curve" smooth="yes"/>
			<point x="467" y="627"/>
			<point x="375" y="690"/>
			<point x="250" y="690" type="curve"/>
			<point x="122" y="690" type="line"/>
			<point x="122" y="607" type="line"/>
			<point x="238" y="607" type="line"/>
			<point x="327" y="607"/>
			<point x="375" y="568"/>
			<point x="375" y="476" type="curve" smooth="yes"/>
			<point x="375" y="383"/>
			<point x="326" y="342"/>
			<point x="238" y="342" type="curve"/>
			<point x="122" y="342" type="line"/>
		</contour>
		<contour>
			<point x="122" y="261" type="line"/>
			<point x="280" y="0" type="line"/>
			<point x="382" y="0" type="line"/>
			<point x="219" y="261" type="line"/>
		</contour>
		<contour>
			<point x="10" y="438" type="line"/>
			<point x="512" y="438" type="line"/>
			<point x="512" y="515" type="line"/>
			<point x="10" y="515" type="line"/>
		</contour>
		<contour>
			<point x="210" y="613" type="line"/>
			<point x="512" y="613" type="line"/>
			<point x="512" y="690" type="line"/>
			<point x="210" y="690" type="line"/>
		</contour>
	</outline>
</glyph>
<glyph name="ruble" format="2">
	<advance width="510"/>
	<unicode hex="20BD"/>
	<outline>
		<component base="P"/>
		<contour>
			<point x="10" y="113" type="line"/>
			<point x="280" y="113" type="line"/>
			<point x="280" y="190" type="line"/>
			<point x="10" y="190" type="line"/>
		</contour>
		<contour>
			<point x="10" y="237" type="line"/>
			<point x="240" y="237" type="line"/>
			<point x="240" y="314" type="line"/>
			<point x="10" y="314" type="line"/>
		</contour>
	</outline>
</glyph>
<glyph name="summation" format="2">
	<advance width="528"/>
	<unicode hex="2211"/>
	<outline>
		<contour>
			<point x="72" y="-185" type="line"/>
			<point x="472" y="-185" type="line"/>
			<point x="472" y="-102" type="line"/>
			<point x="112" y="-102" type="line"/>
			<point x="72" y="-115" type="line"/>
		</contour>
		<contour>
			<point x="168" y="-115" type="line"/>
			<point x="368" y="254" type="line"/>
			<point x="268" y="260" type="line"/>
			<point x="72" y="-115" type="line"/>
		</contour>
		<contour>
			<point x="270" y="250" type="line"/>
			<point x="368" y="254" type="line"/>
			<point x="164" y="630" type="line"/>
			<point x="72" y="620" type="line"/>
		</contour>
		<contour>
			<point x="72" y="620" type="line"/>
			<point x="112" y="607" type="line"/>
			<point x="472" y="607" type="line"/>
			<point x="472" y="690" type="line"/>
			<point x="72" y="690" type="line"/>
		</contour>
	</outline>
</glyph>
<glyph name="integral" format="2">
	<advance width="371"/>
	<unicode hex="222B"/>
	<outline>
		<contour>
			<point x="13" y="-184" type="line"/>
			<point x="32" y="-190.6"/>
			<point x="56" y="-195"/>
			<point x="78" y="-195" type="curve" smooth="yes"/>
			<point x="169" y="-195"/>
			<point x="222" y="-140"/>
			<point x="222" y="-27" type="curve" smooth="yes"/>
			<point x="222" y="568" type="line" smooth="yes"/>
			<point x="222" y="619"/>
			<point x="242" y="652"/>
			<point x="282" y="652" type="curve" smooth="yes"/>
			<point x="299" y="652"/>
			<point x="315" y="648.44444"/>
			<point x="329" y="644" type="curve"/>
			<point x="343" y="717" type="line"/>
			<point x="323" y="724.42857"/>
			<point x="297" y="730"/>
			<point x="273" y="730" type="curve" smooth="yes"/>
			<point x="187" y="730"/>
			<point x="134" y="674"/>
			<point x="134" y="572" type="curve" smooth="yes"/>
			<point x="134" y="-27" type="line" smooth="yes"/>
			<point x="134" y="-89.56098"/>
			<point x="112" y="-117"/>
			<point x="71" y="-117" type="curve" smooth="yes"/>
			<point x="56" y="-117"/>
			<point x="40" y="-114"/>
			<point x="27" y="-110" type="curve"/>
		</contour>
	</outline>
</glyph>
<glyph name="leftanglebracket-math" format="2">
	<advance width="214"/>
	<unicode hex="27E8"/>
	<outline>
		<contour>
			<point x="153" y="-185" type="line"/>
			<point x="210" y="-185" type="line"/>
			<point x="67" y="303" type="line"/>
			<point x="214" y="720" type="line"/>
			<point x="154" y="720" type="line"/>
			<point x="0" y="303" type="line"/>
		</contour>
	</outline>
</glyph>
<glyph name="breve.cap" format="2">
	<advance width="500"/>
	<anchor x="250" y="690" name="_top"/>
	<anchor x="257" y="861" name="top"/>
	<outline>
		<contour>
			<point x="129" y="885" type="line"/>
			<point x="129" y="787.72222"/>
			<point x="187" y="749"/>
			<point x="250" y="749" type="curve" smooth="yes"/>
			<point x="313" y="749"/>
			<point x="371" y="787.72222"/>
			<point x="371" y="885" type="curve"/>
			<point x="307" y="885" type="line"/>
			<point x="302.85455" y="840.89189"/>
			<point x="282" y="821"/>
			<point x="250" y="821" type="curve" smooth="yes"/>
			<point x="217" y="821"/>
			<point x="197.17857" y="840.89189"/>
			<point x="192" y="885" type="curve"/>
		</contour>
	</outline>
</glyph>
<glyph name="caron.cap" format="2">
	<advance width="500"/>
	<anchor x="250" y="690" name="_top"/>
	<outline>
		<contour>
			<point x="127" y="885" type="line"/>
			<point x="205" y="750" type="line"/>
			<point x="291" y="750" type="line"/>
			<point x="200" y="885" type="line"/>
		</contour>
		<contour>
			<point x="209" y="750" type="line"/>
			<point x="295" y="750" type="line"/>
			<point x="373" y="885" type="line"/>
			<point x="300" y="885" type="line"/>
		</contour>
	</outline>
</glyph>
<glyph name="circumflexcomb_acutecomb" format="2">
	<advance width="0"/>
	<anchor x="0" y="515" name="_top"/>
	<outline>
		<contour>
			<point x="110" y="660" type="line"/>
			<point x="183" y="660" type="line"/>
			<point x="282" y="810" type="line"/>
			<point x="180" y="810" type="line"/>
		</contour>
		<contour>
			<point x="-135" y="575" type="line"/>
			<point x="-58" y="575" type="line"/>
			<point x="48" y="710" type="line"/>
			<point x="-50" y="710" type="line"/>
		</contour>
		<contour>
			<point x="-48" y="710" type="line"/>
			<point x="58" y="575" type="line"/>
			<point x="135" y="575" type="line"/>
			<point x="51" y="710" type="line"/>
		</contour>
	</outline>
</glyph>
<glyph name="grave.cap" format="2">
	<advance width="500"/>
	<anchor x="250" y="690" name="_top"/>
	<outline>
		<contour>
			<point x="112" y="885" type="line"/>
			<point x="218" y="750" type="line"/>
			<point x="298" y="750" type="line"/>
			<point x="217" y="885" type="line"/>
		</contour>
	</outline>
</glyph>
<glyph name="hungarumlaut.cap" format="2">
	<advance width="500"/>
	<anchor x="250" y="690" name="_top"/>
	<outline>
		<contour>
			<point x="125" y="750" type="line"/>
			<point x="196" y="750" type="line"/>
			<point x="282" y="885" type="line"/>
			<point x="184" y="885" type="line"/>
		</contour>
		<contour>
			<point x="287" y="750" type="line"/>
			<point x="358" y="750" type="line"/>
			<point x="452" y="885" type="line"/>
			<point x="354" y="885" type="line"/>
		</contour>
	</outline>
</glyph>
<glyph name="macron.cap" format="2">
	<advance width="500"/>
	<anchor x="250" y="690" name="_top"/>
	<outline>
		<contour>
			<point x="121" y="776" type="line"/>
			<point x="379" y="776" type="line"/>
			<point x="379" y="846" type="line"/>
			<point x="121" y="846" type="line"/>
		</contour>
	</outline>
</glyph>
